# xmcd
#
# Track frame offsets:
#  150
#  10947
#  23234
#  31613
#  42974
#  63505
#  76809
#  95350
#  111788
#  123802
#  135041
#  162325
#  179197
#  191026
#
# Disc length: 2713 seconds
#
# Revision: 3
# Processed by: cddbd v1.5.1PL0 Copyright (c) Steve Scherf et al.
# Submitted via: Collectorz.com Music Collector 6.9
#
DISCID=a90a970e
DTITLE=Jon Langford and the Pine Valley Cosmonauts - The Executioner's Last Songs, Vol. 3
DYEAR=2003
DGENRE=Country
TTITLE0=Alejandro Escovedo and Jon Langford and Dave Alvin - Bad News
TTITLE1=Rebecca Gates - The Ballad of Billy Joe
TTITLE2=Rhett Miller - Dang Me
TTITLE3=Rex Hobart - Forever To Burn
TTITLE4=Pat Brennan - Death Where Is Thy Sting
TTITLE5=Sally Timms and Edith Frost - Long Black Veil
TTITLE6=Mark Eitzel - God's Eternal Love
TTITLE7=Gurf Morlix - Hangin' Me Tonight
TTITLE8=Meat Purveyors and Rick Cookin' Sherry - John Hardy
TTITLE9=Jon Rauhouse - Pardon This Coffin
TTITLE10=Kevin Coyne - Saviour
TTITLE11=Dave Alvin - Green Green Grass of Home
TTITLE12=Tom Greenhalgh - Angel of Death
TTITLE13=Sundowners - Tom Dooley
EXTD=
EXTT0=
EXTT1=
EXTT2=
EXTT3=
EXTT4=
EXTT5=
EXTT6=
EXTT7=
EXTT8=
EXTT9=
EXTT10=
EXTT11=
EXTT12=
EXTT13=
PLAYORDER=
